<?xml version="1.0" encoding="utf-8"?>
<!-- Generator: Adobe Illustrator 16.0.0, SVG Export Plug-In . SVG Version: 6.00 Build 0)  -->
<!DOCTYPE svg PUBLIC "-//W3C//DTD SVG 1.1//EN" "http://www.w3.org/Graphics/SVG/1.1/DTD/svg11.dtd">
<svg version="1.1" id="Layer_1" xmlns="http://www.w3.org/2000/svg" xmlns:xlink="http://www.w3.org/1999/xlink" x="0px" y="0px"
	 width="232px" height="58px" viewBox="0 0 232 58" enable-background="new 0 0 232 58" xml:space="preserve">
<g>
	<path fill="#366AAD" d="M27.044,34.579l-1.081-0.479l-15.616-6.22l-4.324,1.674C4.821,30.033,4.1,31.229,4.1,32.426v16.028
		c0,2.153,2.042,3.709,3.964,2.871l25.586-10.167c0.841-0.359,1.562-1.077,1.802-2.034C35.092,38.526,33.291,37.091,27.044,34.579z"
		/>
	<path fill="#75B871" d="M27.044,21.421c6.367-2.512,8.048-3.947,8.529-4.665c-0.24-0.957-0.961-1.675-1.802-2.033L8.064,4.675
		C6.143,3.957,4.1,5.393,4.1,7.546v15.789c0,1.315,0.721,2.512,1.922,2.871l4.324,1.675l15.616-6.221L27.044,21.421z"/>
	<path fill="#599ACE" d="M27.044,21.421l-1.081,0.479L10.347,28.12l15.616,6.22l1.081,0.479c6.367,2.512,8.048,3.947,8.529,4.665
		c0.12-0.239,0.12-0.598,0.12-0.957v-9.21v-2.273v-9.21c0-0.359,0-0.599-0.12-0.957C35.092,17.354,33.291,18.909,27.044,21.421z"/>
	<path fill="#FFFFFF" d="M62.841,24.531c-0.24,1.196-1.201,1.794-2.402,1.794h-1.682l-1.682,6.938
		c-0.12,0.718,0.121,1.077,0.841,1.077h0.36c1.321,0,1.802,0.837,1.562,2.033s-1.201,1.794-2.402,1.794h-0.841
		c-3.363,0-5.045-1.913-4.444-4.784l1.682-7.297h-0.601c-1.321,0-1.802-0.837-1.562-2.033s1.201-1.794,2.402-1.794h0.601l0.48-1.914
		c0.36-1.675,1.441-2.513,3.003-2.513c1.562,0,2.162,0.957,1.802,2.513l-0.48,1.914h1.682
		C62.601,22.498,63.201,23.335,62.841,24.531z"/>
	<path fill="#FFFFFF" d="M67.166,18.431l0.12-0.358c0.36-1.316,1.441-2.034,3.003-2.034s2.282,0.838,2.042,2.034l-0.12,0.358
		c-0.36,1.315-1.321,2.033-3.003,2.033S66.805,19.627,67.166,18.431z M62.961,36.015l2.643-11.364
		c0.36-1.674,1.441-2.512,3.123-2.512s2.282,0.957,1.922,2.512l-2.643,11.364c-0.36,1.675-1.441,2.512-3.123,2.512
		C63.321,38.646,62.601,37.689,62.961,36.015z"/>
	<path fill="#FFFFFF" d="M72.21,31.589l0.601-2.393c0.961-4.187,4.805-6.938,9.37-6.938c2.283,0,4.565,0.479,5.166,2.632
		c0.24,0.717-0.24,2.272-1.922,2.751c-1.442,0.358-2.163,0.119-2.523-0.359c-0.601-0.718-1.201-0.718-1.682-0.718
		c-1.682,0-3.003,1.077-3.363,2.752l-0.601,2.152c-0.36,1.675,0.48,2.752,2.162,2.752c0.48,0,1.321-0.12,2.282-0.838
		c0.48-0.358,1.441-0.837,2.522-0.358c1.322,0.479,1.202,1.794,0.841,2.631c-1.082,2.153-4.205,2.991-6.607,2.991
		C73.772,38.646,71.25,35.775,72.21,31.589z"/>
	<path fill="#FFFFFF" d="M104.164,26.086l-3.123,2.751l1.682,6.34c0.36,1.436-0.36,2.632-1.922,3.23
		c-1.562,0.598-2.763,0-3.003-1.316l-1.201-5.263l-2.522,2.152l-0.48,2.034c-0.36,1.675-1.441,2.512-3.123,2.512
		c-1.562,0-2.283-0.957-1.922-2.512l4.205-17.584c0.36-1.675,1.441-2.512,3.123-2.512c1.562,0,2.282,0.957,1.922,2.512
		l-2.402,10.048l6.126-5.383c1.201-1.076,2.402-1.196,3.243-0.119C105.605,23.933,105.365,25.01,104.164,26.086z"/>
	<path fill="#FFFFFF" d="M114.614,25.967c-1.441,0-2.643,1.076-3.123,2.632h5.045v0.239
		C116.897,27.043,116.056,25.967,114.614,25.967z M121.461,28.957l-0.24,0.957c-0.36,1.315-1.201,2.033-2.522,2.033h-8.048
		c-0.36,1.795,0.48,2.871,1.922,2.871c0.721,0,1.562-0.239,2.763-1.076c0.481-0.359,1.321-0.838,2.283-0.479
		c1.681,0.479,1.681,2.033,0.96,2.87c-1.441,1.675-4.324,2.393-6.847,2.393c-4.565,0-6.967-2.751-6.006-6.818l0.601-2.751
		c0.961-4.066,4.565-6.818,9.129-6.818S122.422,24.891,121.461,28.957z"/>
	<path fill="#FFFFFF" d="M135.396,24.531c-0.24,1.196-1.201,1.794-2.402,1.794h-1.682l-1.682,6.938
		c-0.121,0.718,0.119,1.077,0.84,1.077h0.361c1.32,0,1.801,0.837,1.561,2.033s-1.201,1.794-2.402,1.794h-1.08
		c-3.364,0-5.046-1.913-4.445-4.784l1.682-7.297h-0.48c-1.321,0-1.802-0.837-1.562-2.033s1.201-1.794,2.403-1.794h0.6l0.48-1.914
		c0.361-1.675,1.441-2.513,3.004-2.513c1.561,0,2.162,0.957,1.801,2.513l-0.48,1.914h1.683
		C135.155,22.498,135.636,23.335,135.396,24.531z"/>
	<path fill="#FFFFFF" d="M147.288,32.546l0.359-1.556h-6.006c-1.922,0-3.483,0.957-3.844,2.632l-0.12,0.718
		c-0.36,1.675,0.841,2.751,3.003,2.751C144.044,37.091,146.687,35.297,147.288,32.546z M150.171,28l-2.283,9.689
		c-0.119,0.479-0.48,0.837-0.961,0.837s-0.721-0.358-0.6-0.837l0.359-1.675c-1.561,1.675-3.963,2.632-6.606,2.632
		c-3.003,0-4.685-1.675-4.084-4.067l0.24-0.957c0.601-2.393,2.763-3.947,5.526-3.947h6.246l0.359-1.436
		c0.602-2.512-0.84-4.187-3.482-4.187c-2.043,0-3.845,0.837-4.926,2.272c-0.24,0.359-0.601,0.359-0.961,0.359
		c-0.601-0.12-0.721-0.599-0.36-1.077c1.441-1.914,3.845-3.109,6.606-3.109C148.97,22.378,150.892,24.65,150.171,28z"/>
	<path fill="#FFFFFF" d="M168.31,28.479l-2.162,9.091c-0.121,0.479-0.48,0.838-1.082,0.838c-0.48,0-0.721-0.359-0.6-0.838
		l2.162-8.971c0.721-2.871-0.721-4.785-3.604-4.785c-2.764,0-5.166,1.914-5.767,4.785l-2.162,8.971
		c-0.12,0.479-0.48,0.838-1.081,0.838c-0.48,0-0.721-0.359-0.601-0.838l3.363-14.234c0.12-0.598,0.48-0.837,0.961-0.837
		s0.721,0.358,0.601,0.837l-0.36,1.556c1.441-1.556,3.364-2.513,5.646-2.513C167.228,22.378,169.15,24.891,168.31,28.479z"/>
	<path fill="#FFFFFF" d="M183.925,32.067v-0.12l0.602-2.871c0.721-3.109-0.721-5.144-3.725-5.144c-3.002,0-5.525,2.034-6.246,5.144
		l-0.601,2.871c-0.721,3.11,0.721,5.144,3.724,5.144C180.683,37.091,183.204,35.058,183.925,32.067z M189.091,16.876l-4.805,20.693
		c-0.121,0.479-0.48,0.838-0.961,0.838s-0.721-0.359-0.602-0.838l0.48-1.794c-1.561,1.794-3.604,2.871-6.006,2.871
		c-3.844,0-5.646-2.632-4.805-6.46l0.721-3.11c0.841-3.947,4.084-6.459,7.928-6.459c2.283,0,3.965,0.957,4.686,2.632l1.922-8.134
		c0.12-0.479,0.48-0.838,1.081-0.838C189.091,16.038,189.331,16.397,189.091,16.876z"/>
	<path fill="#FFFFFF" d="M200.503,31.11l0.48-1.914c0.359-1.555-0.48-2.632-2.043-2.632c-1.682,0-3.003,1.077-3.363,2.632
		l-0.48,1.914c-0.36,1.555,0.48,2.632,2.162,2.632C198.821,33.742,200.142,32.665,200.503,31.11z M206.989,24.771l-3.004,12.799
		c-0.961,4.067-4.805,6.699-9.729,6.699c-1.802,0-4.084,0-5.045-1.556c-0.48-0.837-0.12-2.393,1.562-3.109
		c0.961-0.479,1.682-0.239,2.042,0c0.961,0.717,1.802,0.717,2.282,0.717c2.162,0,3.844-1.195,4.324-3.109l0.24-1.196
		c-1.32,1.196-3.123,1.914-5.045,1.914c-3.724,0-5.646-2.513-4.685-6.46l0.721-2.99c0.841-3.828,3.964-6.459,7.688-6.459
		c1.922,0,3.363,0.718,4.203,2.033c0.602-1.315,1.441-2.033,2.764-2.033C206.749,22.139,207.35,23.096,206.989,24.771z"/>
	<path fill="#FFFFFF" d="M219.122,31.469l0.601-2.272c0.36-1.675-0.48-2.751-2.042-2.751c-1.682,0-3.004,1.076-3.363,2.751
		l-0.602,2.272c-0.359,1.675,0.48,2.752,2.043,2.752C217.319,34.34,218.642,33.144,219.122,31.469z M208.671,31.589l0.601-2.512
		c0.962-4.187,4.685-6.938,9.37-6.938c4.685,0,7.087,2.752,6.126,6.938l-0.601,2.512c-0.961,4.187-4.685,6.938-9.369,6.938
		C210.112,38.646,207.71,35.775,208.671,31.589z"/>
</g>
</svg>
